<?xml version="1.0" encoding="UTF-8"?>
<svg width="64" height="64" viewBox="0 0 64 64" fill="none" xmlns="http://www.w3.org/2000/svg">
    <circle cx="32" cy="32" r="32" fill="#F7931A"/>
    <path d="M43.0375 27.9625C43.7125 23.925 40.675 21.925 36.575 20.575L37.925 15.175L34.675 14.325L33.375 19.575C32.575 19.375 31.75 19.2 30.925 19L32.25 13.725L29 12.875L27.625 18.275C26.95 18.125 26.3 17.975 25.675 17.825L25.675 17.8L21.175 16.625L20.25 20.075C20.25 20.075 22.675 20.625 22.625 20.675C24.025 21 24.275 21.925 24.225 22.65L22.675 28.875C22.775 28.9 22.9 28.925 23.05 28.975L22.675 28.875L20.475 37.75C20.3 38.2 19.875 38.875 18.925 38.65C18.95 38.725 16.55 38.05 16.55 38.05L14.825 41.725L19.075 42.825C19.825 43.025 20.55 43.225 21.275 43.425L19.9 48.9L23.15 49.75L24.5 44.35C25.325 44.575 26.15 44.8 26.925 45L25.6 50.375L28.85 51.225L30.225 45.775C35.875 46.85 40.175 46.425 41.875 41.275C43.25 37.15 41.725 34.775 38.825 33.225C41 32.675 42.55 31.075 43.0375 27.9625ZM34.925 39.075C33.95 43.2 27.175 41.275 25.175 40.775L27.025 33.425C29.025 33.925 35.95 34.775 34.925 39.075ZM35.925 27.875C35.025 31.65 29.375 30.025 27.725 29.6L29.4 22.95C31.05 23.375 36.85 23.925 35.925 27.875Z" fill="white"/>
</svg> 