<?xml version="1.0" encoding="UTF-8"?>
<svg width="64" height="64" viewBox="0 0 64 64" fill="none" xmlns="http://www.w3.org/2000/svg">
    <circle cx="32" cy="32" r="32" fill="#26A17B"/>
    <path d="M36.2 28.9V25H44V19.6H20V25H27.8V28.9C22.4 29.4 18.4 30.7 18.4 32.2C18.4 33.7 22.4 35 27.8 35.5V46H36.2V35.5C41.6 35 45.6 33.7 45.6 32.2C45.6 30.7 41.6 29.4 36.2 28.9ZM36.2 34.6V33.1C36.1 33.1 34.6 33.3 32 33.3C29.8 33.3 28.1 33.1 27.8 33.1V34.6C27.5 34.6 23.8 34.2 23.8 32.2C23.8 30.2 27.5 29.8 27.8 29.8V31.3C28.1 31.3 29.8 31.5 32 31.5C34.5 31.5 36 31.3 36.2 31.3V29.8C36.5 29.8 40.2 30.2 40.2 32.2C40.2 34.2 36.5 34.6 36.2 34.6Z" fill="white"/>
</svg> 